<mxfile host="app.diagrams.net" modified="2023-11-16T20:08:04.674Z" agent="Mozilla/5.0 (Macintosh; Intel Mac OS X 10.15; rv:109.0) Gecko/20100101 Firefox/119.0" version="22.1.2" etag="GG2u4z3Cs90GxUUl-tmB" type="github">
  <diagram name="Page-1" id="msi8kJ3foba0SvecHeKB">
    <mxGraphModel>
      <root>
        <mxCell id="0" />
        <mxCell id="1" parent="0" />
      </root>
    </mxGraphModel>
  </diagram>
</mxfile>
